<?xml version="1.0" standalone="no"?><!DOCTYPE svg PUBLIC "-//W3C//DTD SVG 1.1//EN" "http://www.w3.org/Graphics/SVG/1.1/DTD/svg11.dtd"><svg t="1549263264058" class="icon" style="" viewBox="0 0 1031 1024" version="1.1" xmlns="http://www.w3.org/2000/svg" p-id="1099" data-spm-anchor-id="a313x.7781069.0.i0" xmlns:xlink="http://www.w3.org/1999/xlink" width="201.3671875" height="200"><defs><style type="text/css"></style></defs><path d="M515.2 768c-6.4 0-19.2-6.4-25.6-12.8l-480-512c-12.8-12.8-12.8-32 0-44.8 12.8-12.8 32-12.8 44.8 0l480 512c12.8 12.8 12.8 32 0 44.8C534.4 768 528 768 515.2 768z" p-id="1100" fill="#73787c"></path><path d="M515.2 768c-6.4 0-12.8 0-19.2-6.4-12.8-12.8-12.8-32 0-44.8l480-505.6c12.8-12.8 32-12.8 44.8 0 12.8 12.8 12.8 32 0 44.8l-480 505.6C534.4 761.6 528 768 515.2 768z" p-id="1101" fill="#73787c"></path></svg>