<?xml version="1.0" standalone="no"?><!DOCTYPE svg PUBLIC "-//W3C//DTD SVG 1.1//EN" "http://www.w3.org/Graphics/SVG/1.1/DTD/svg11.dtd"><svg t="1549273672867" class="icon" style="" viewBox="0 0 1024 1024" version="1.1" xmlns="http://www.w3.org/2000/svg" p-id="7490" xmlns:xlink="http://www.w3.org/1999/xlink" width="200" height="200"><defs><style type="text/css"></style></defs><path d="M511.999488 61.745273c-248.681782 0-450.273176 201.543226-450.273176 450.214818 0 248.711502 201.591394 450.294636 450.273176 450.294636s450.273176-201.583135 450.273176-450.294636C962.272664 263.288498 760.68127 61.745273 511.999488 61.745273zM511.999488 877.79308c-202.051901 0-365.867422-163.810856-365.867422-365.832989 0-202.023156 163.814498-365.8115 365.867422-365.8115 202.049854 0 365.867422 163.789367 365.867422 365.8115C877.865887 713.982224 714.049343 877.79308 511.999488 877.79308z" p-id="7491" fill="#adadad"></path><path d="M547.17708 476.78394 547.17708 171.950234 476.821896 171.950234 476.821896 547.176151 521.393824 547.176151 547.17708 547.176151 830.976076 547.176151 830.976076 476.78394Z" p-id="7492" fill="#adadad"></path></svg>