<?xml version="1.0" standalone="no"?><!DOCTYPE svg PUBLIC "-//W3C//DTD SVG 1.1//EN" "http://www.w3.org/Graphics/SVG/1.1/DTD/svg11.dtd"><svg t="1549372160899" class="icon" style="" viewBox="0 0 1397 1024" version="1.1" xmlns="http://www.w3.org/2000/svg" p-id="4639" xmlns:xlink="http://www.w3.org/1999/xlink" width="87.3125" height="64"><defs><style type="text/css"></style></defs><path d="M 1331.41 175.356 a 136.623 136.623 0 0 0 -134.511 -5.03453 l -172.9 88.6322 V 203.005 a 203.229 203.229 0 0 0 -203.005 -203.005 H 203.005 A 203.229 203.229 0 0 0 0 203.005 v 617.989 a 203.229 203.229 0 0 0 203.005 203.005 h 617.989 a 203.229 203.229 0 0 0 203.005 -203.005 v -55.928 l 172.9 88.6119 a 137.577 137.577 0 0 0 200.346 -122.433 v -438.492 a 136.643 136.643 0 0 0 -65.8347 -117.398 Z m -388.613 645.557 a 121.925 121.925 0 0 1 -121.803 121.803 H 203.005 a 121.945 121.945 0 0 1 -121.803 -121.803 V 203.005 a 121.945 121.945 0 0 1 121.803 -121.803 h 617.989 a 121.945 121.945 0 0 1 121.803 121.803 v 617.989 Z m 373.246 -89.7487 a 56.3746 56.3746 0 0 1 -82.0954 50.1626 l -179.274 -91.8803 a 56.1716 56.1716 0 0 1 -30.6741 -50.1829 V 384.655 a 56.1716 56.1716 0 0 1 30.6741 -50.1829 l 179.274 -91.8803 a 56.3746 56.3746 0 0 1 82.0954 50.1626 Z" fill="#515151" p-id="4640"></path><path d="M 655.708 442.978 l -152.721 -88.1653 a 79.6999 79.6999 0 0 0 -119.55 69.0219 v 176.351 a 78.9082 78.9082 0 0 0 39.85 69.0219 a 78.9285 78.9285 0 0 0 79.6999 0 L 655.708 581.022 a 79.6999 79.6999 0 0 0 0 -138.044 Z m -30.4508 85.2623 l -152.721 88.1856 a 18.7983 18.7983 0 0 1 -28.1975 -16.2404 v -176.351 a 18.4532 18.4532 0 0 1 9.39915 -16.2404 a 19.3464 19.3464 0 0 1 9.50065 -2.59847 a 18.2705 18.2705 0 0 1 9.29765 2.59847 L 625.257 495.719 a 18.7983 18.7983 0 0 1 0 32.4809 Z" fill="#515151" p-id="4641"></path></svg>